# xmcd
#
# Track frame offsets:
#	150
#	16229
#	29066
#	40099
#	57550
#	70542
#	84578
#	101359
#	115853
#	131115
#	145155
#	155543
#	171309
#	180473
#	197236
#	212912
#	227763
#	243780
#	259221
#	276278
#	290565
#	311131
#	326399
#
# Disc length: 4560 seconds
#
# Revision: 1
# Processed by: cddbd v1.5.1PL2 Copyright (c) Steve Scherf et al.
# Submitted via: audiograbber 1.83.01
#
DISCID=5411ce17
DTITLE=Alison Krauss - Lonely Runs Both Ways
DYEAR=1900
DGENRE=Bluegrass
TTITLE0=Gravity
TTITLE1=Restless
TTITLE2=Rain Please Go Away
TTITLE3=Goodbye Is All We Have
TTITLE4=Unionhouse Branch
TTITLE5=Wouldn't Be So Bad
TTITLE6=Pastures Of Plenty
TTITLE7=Crazy As Me
TTITLE8=Borderline
TTITLE9=My Poor Old Heart
TTITLE10=This Sad Song
TTITLE11=Doesn't Have To Be This Way
TTITLE12=I Don't Have To Live This Way
TTITLE13=If I Didn't Know Any Better
TTITLE14=Living Prayer
TTITLE15=Every Time You Say Goodbye
TTITLE16=Heart Strings
TTITLE17=Stay
TTITLE18=Maybe
TTITLE19=The Lucky One
TTITLE20=New Favorite
TTITLE21=So Long, So Wrong
TTITLE22=No Place To Hide
EXTD=
EXTT0=
EXTT1=
EXTT2=
EXTT3=
EXTT4=
EXTT5=
EXTT6=
EXTT7=
EXTT8=
EXTT9=
EXTT10=
EXTT11=
EXTT12=
EXTT13=
EXTT14=
EXTT15=
EXTT16=
EXTT17=
EXTT18=
EXTT19=
EXTT20=
EXTT21=
EXTT22=
PLAYORDER=
